<?xml version="1.0" standalone="no"?>
<!DOCTYPE svg PUBLIC "-//W3C//DTD SVG 20010904//EN"
 "http://www.w3.org/TR/2001/REC-SVG-20010904/DTD/svg10.dtd">
<svg version="1.0" xmlns="http://www.w3.org/2000/svg"
 width="500.000000pt" height="500.000000pt" viewBox="0 0 500.000000 500.000000"
 preserveAspectRatio="xMidYMid meet">
<metadata>
Created by potrace 1.11, written by Peter Selinger 2001-2013
</metadata>
<g transform="translate(0.000000,500.000000) scale(0.100000,-0.100000)"
fill="#000000" stroke="none">
<path d="M2326 4359 c-280 -26 -585 -129 -812 -274 -194 -124 -410 -327 -536
-505 -247 -349 -370 -788 -337 -1212 37 -488 245 -913 615 -1256 128 -119 249
-202 409 -282 673 -336 1464 -242 2042 243 465 390 718 1019 652 1615 -49 446
-237 833 -550 1137 -199 193 -378 311 -623 409 -256 103 -585 151 -860 125z
m284 -195 c56 -32 190 -134 190 -145 0 -9 1 -9 -150 -48 -118 -31 -248 -51
-332 -51 l-47 0 -52 93 c-28 50 -58 99 -66 109 -8 9 -11 18 -6 21 4 2 62 12
128 21 66 8 131 17 145 19 81 13 146 6 190 -19z m-655 -11 c-4 -10 -14 -46
-22 -79 l-15 -62 -39 16 c-34 13 -38 18 -33 41 20 89 27 97 88 100 23 1 27 -2
21 -16z m97 -11 c50 -33 98 -111 98 -158 l0 -28 -20 22 c-21 22 -49 22 -92 0
-10 -4 -30 -5 -44 -2 -26 7 -27 8 -20 73 11 117 22 130 78 93z m885 -103 c499
-140 920 -538 1082 -1025 62 -185 75 -277 75 -514 0 -186 -3 -229 -22 -320
-71 -326 -208 -577 -441 -811 -233 -232 -486 -370 -811 -441 -91 -19 -134 -22
-320 -22 -186 0 -229 3 -320 22 -320 70 -580 210 -800 431 -270 272 -423 585
-469 961 -47 377 59 789 287 1110 116 164 326 356 484 445 l45 25 11 -38 c6
-20 18 -63 27 -94 20 -74 38 -92 84 -84 20 3 41 12 47 21 6 8 14 15 17 15 3 0
72 -43 152 -95 80 -52 148 -95 151 -95 4 0 4 14 2 32 -12 76 29 130 81 110 25
-9 25 -9 -8 -20 -67 -24 -79 -133 -25 -252 37 -82 81 -120 140 -120 53 0 81
12 110 47 l22 25 63 -15 c142 -35 196 -41 273 -29 110 17 201 50 283 104 61
40 78 57 95 96 28 62 38 205 16 230 -9 9 -25 38 -36 63 -25 59 -51 77 -213
145 -159 67 -221 97 -237 117 -11 13 -6 13 35 6 26 -5 80 -18 120 -30z m-1173
-144 c-4 -8 -8 -15 -10 -15 -2 0 -4 7 -4 15 0 8 4 15 10 15 5 0 7 -7 4 -15z
m35 -61 c17 -38 25 -110 13 -118 -13 -8 -42 66 -42 109 0 42 12 45 29 9z
m1436 -131 c7 -46 5 -49 -27 -76 -45 -38 -145 -87 -178 -87 -17 0 -39 14 -68
43 l-42 43 88 26 c48 15 112 43 142 62 30 18 60 34 66 35 7 1 15 -20 19 -46z
m-363 -97 c46 -52 40 -56 -79 -55 -60 0 -133 6 -163 12 -45 10 -55 16 -60 37
-13 50 -8 52 139 44 l136 -7 27 -31z m-534 -32 c49 -34 90 -154 72 -210 -32
-96 -150 22 -150 150 0 67 32 92 78 60z"/>
<path d="M1810 3145 c0 -13 83 -15 690 -15 607 0 690 2 690 15 0 13 -83 15
-690 15 -607 0 -690 -2 -690 -15z"/>
<path d="M1398 2985 c-16 -13 -28 -29 -28 -35 0 -23 -230 -620 -256 -664 -7
-11 -28 -21 -50 -25 -26 -4 -40 -12 -42 -24 -3 -15 8 -17 122 -17 101 0 126 3
126 14 0 15 -21 26 -51 26 -14 0 -19 7 -19 27 0 35 59 216 74 225 20 13 223 9
234 -4 12 -15 72 -208 72 -232 0 -11 -9 -16 -27 -16 -35 0 -58 -14 -49 -29 5
-7 56 -11 152 -11 120 0 144 2 144 15 0 8 -12 17 -27 21 -57 12 -64 16 -79 45
-12 24 -244 694 -244 706 0 11 -29 -1 -52 -22z m85 -407 c-2 -5 -47 -8 -100
-8 -72 0 -94 3 -91 13 3 6 27 72 53 146 l49 134 47 -139 c25 -76 44 -142 42
-146z"/>
<path d="M1992 2997 c-91 -33 -136 -104 -130 -203 6 -90 37 -131 168 -219 124
-83 150 -116 150 -192 0 -61 -18 -96 -61 -119 -35 -18 -110 -18 -153 0 -38 16
-92 77 -107 123 -10 30 -32 43 -42 26 -5 -8 7 -94 18 -141 13 -53 183 -88 278
-58 72 22 114 55 142 110 43 86 29 178 -39 253 -23 24 -84 72 -136 106 -105
68 -133 104 -132 168 1 78 63 126 150 116 56 -6 91 -32 119 -90 17 -34 28 -45
39 -40 13 5 15 16 10 57 -12 91 -13 92 -67 104 -63 15 -164 14 -207 -1z"/>
<path d="M3583 2987 c-18 -12 -32 -30 -33 -40 0 -16 -165 -460 -223 -602 -25
-61 -45 -79 -99 -90 -16 -3 -28 -12 -28 -20 0 -12 21 -15 123 -15 68 0 127 3
130 7 13 12 -15 33 -44 33 -21 0 -29 5 -29 17 0 24 60 215 73 231 7 9 41 12
126 10 l115 -3 38 -119 c21 -66 35 -123 31 -127 -5 -4 -21 -9 -38 -11 -19 -2
-31 -9 -33 -20 -3 -17 9 -18 143 -18 134 0 146 1 143 18 -2 11 -14 18 -34 20
-17 2 -41 13 -52 25 -17 18 -224 602 -247 700 -8 32 -19 33 -62 4z m45 -276
c23 -68 39 -128 36 -132 -8 -14 -184 -11 -184 2 0 25 93 270 100 262 4 -4 26
-64 48 -132z"/>
<path d="M2470 2991 c-56 -4 -75 -10 -75 -20 0 -8 15 -19 33 -23 21 -6 36 -18
42 -34 6 -14 10 -153 10 -312 0 -321 -2 -334 -60 -342 -21 -3 -36 -11 -38 -21
-2 -14 21 -17 190 -22 286 -10 382 12 486 108 98 91 143 220 122 352 -25 152
-107 246 -260 294 -52 17 -97 21 -220 24 -85 1 -189 0 -230 -4z m405 -69 c65
-30 128 -92 157 -156 20 -44 23 -67 23 -167 0 -113 -1 -118 -35 -185 -58 -114
-145 -159 -296 -152 -93 3 -117 17 -134 77 -5 20 -10 157 -10 308 0 241 2 273
17 288 26 26 210 17 278 -13z"/>
<path d="M3340 2056 c0 -16 3 -17 12 -8 7 7 18 12 25 12 17 0 18 -101 1 -118
-9 -9 -5 -12 18 -12 l30 0 -4 65 c-3 42 -1 65 6 65 6 0 14 -4 17 -10 10 -16
25 -12 25 8 0 14 -10 17 -65 17 -58 0 -65 -2 -65 -19z"/>
<path d="M1268 2058 c14 -14 16 -108 2 -108 -5 0 -10 -5 -10 -11 0 -6 20 -9
52 -7 44 2 53 6 56 23 3 16 1 18 -9 8 -7 -7 -23 -13 -36 -13 -18 0 -23 6 -23
25 0 16 6 25 15 25 8 0 15 -4 15 -10 0 -5 5 -10 10 -10 6 0 10 11 10 25 0 14
-4 25 -10 25 -5 0 -10 -4 -10 -10 0 -5 -7 -10 -15 -10 -9 0 -15 9 -15 25 0 27
10 31 41 15 15 -8 19 -7 19 5 0 11 -12 15 -52 15 -40 0 -49 -3 -40 -12z"/>
<path d="M1408 2059 c15 -16 16 -101 0 -117 -9 -9 -4 -12 22 -12 26 0 31 3 22
12 -12 12 -17 48 -6 48 3 0 17 -13 31 -30 13 -16 32 -30 40 -30 11 0 8 8 -11
31 -20 24 -24 34 -16 45 7 7 10 23 8 36 -3 20 -10 23 -53 26 -40 3 -48 1 -37
-9z m62 -14 c14 -16 6 -35 -16 -35 -8 0 -14 10 -14 25 0 28 12 32 30 10z"/>
<path d="M1568 2015 c3 -34 -1 -61 -8 -70 -11 -13 -7 -15 19 -15 29 0 31 2 20
21 -18 35 5 42 29 9 13 -16 29 -30 38 -30 11 0 9 8 -10 33 -24 31 -25 34 -8
50 25 26 5 51 -44 55 l-39 3 3 -56z m62 14 c0 -20 -24 -26 -35 -9 -4 6 -4 17
-1 25 7 20 36 7 36 -16z"/>
<path d="M1736 2018 c-10 -29 -25 -61 -34 -70 -14 -17 -13 -18 12 -18 15 0 25
4 22 9 -10 16 5 41 25 41 18 0 23 -10 20 -37 -1 -8 9 -13 24 -13 14 0 25 5 25
10 0 6 -4 10 -9 10 -6 0 -18 27 -27 60 -9 33 -22 60 -28 60 -6 0 -20 -24 -30
-52z m34 -8 c0 -5 -4 -10 -10 -10 -5 0 -10 5 -10 10 0 6 5 10 10 10 6 0 10 -4
10 -10z"/>
<path d="M1858 2063 c16 -6 16 -105 0 -121 -9 -9 -4 -12 22 -12 26 0 31 3 22
12 -7 7 -12 28 -12 48 l1 35 44 -49 c49 -55 52 -53 57 37 3 55 2 57 -21 57
-20 0 -22 -3 -13 -12 7 -7 12 -28 12 -47 l-1 -36 -40 48 c-27 30 -49 47 -63
46 -11 0 -15 -3 -8 -6z"/>
<path d="M2045 2000 l0 -70 43 0 c32 0 49 6 67 25 52 52 17 115 -64 115 l-46
0 0 -70z m83 44 c24 -17 30 -62 10 -82 -7 -7 -22 -12 -35 -12 -21 0 -23 4 -23
55 0 60 9 67 48 39z"/>
<path d="M2331 2048 c-8 -21 -40 -93 -49 -110 -2 -5 6 -8 18 -8 11 0 20 6 19
13 -3 27 2 37 21 37 19 0 24 -10 21 -37 -1 -8 9 -13 24 -13 14 0 25 5 25 10 0
6 -4 10 -8 10 -5 0 -17 27 -27 60 -19 64 -30 73 -44 38z m15 -45 c-10 -10 -19
5 -10 18 6 11 8 11 12 0 2 -7 1 -15 -2 -18z"/>
<path d="M2439 2061 c10 -6 12 -25 9 -70 -4 -60 -4 -61 21 -61 19 0 22 3 13
12 -7 7 -12 28 -12 48 l1 35 44 -47 c24 -27 46 -48 48 -48 3 0 7 32 9 70 3 69
3 70 -22 69 -14 0 -19 -3 -12 -6 7 -3 12 -22 12 -46 l0 -42 -41 48 c-25 29
-49 47 -62 47 -17 0 -19 -3 -8 -9z"/>
<path d="M2625 2000 l0 -70 41 0 c54 0 94 30 94 71 0 44 -31 69 -87 69 l-48 0
0 -70z m83 44 c24 -17 30 -62 10 -82 -7 -7 -22 -12 -35 -12 -21 0 -23 4 -23
55 0 60 9 67 48 39z"/>
<path d="M2878 2059 c15 -16 16 -101 0 -117 -9 -9 -4 -12 22 -12 26 0 31 3 22
12 -15 15 -16 48 -2 48 6 0 10 -4 10 -8 0 -15 40 -52 56 -52 12 0 9 8 -10 31
-20 24 -24 34 -16 45 7 7 10 23 8 36 -3 20 -10 23 -53 26 -40 3 -48 1 -37 -9z
m62 -14 c14 -16 6 -35 -16 -35 -8 0 -14 10 -14 25 0 28 12 32 30 10z"/>
<path d="M3028 2063 c16 -6 16 -105 0 -121 -9 -9 1 -12 45 -12 53 0 57 2 56
23 0 12 -3 16 -6 10 -2 -7 -18 -13 -34 -13 -24 0 -29 4 -29 25 0 27 18 33 38
13 9 -9 12 -6 12 17 0 23 -3 26 -12 17 -20 -20 -38 -14 -38 13 0 27 26 35 48
13 9 -9 12 -8 12 5 0 14 -9 17 -52 16 -29 0 -47 -3 -40 -6z"/>
<path d="M3168 2058 c16 -16 16 -100 0 -116 -9 -9 -6 -12 14 -12 24 0 25 2 21
48 l-4 47 45 -50 46 -50 0 53 c0 29 5 62 10 73 9 17 7 19 -17 19 -21 0 -24 -3
-15 -12 7 -7 12 -28 12 -47 l-1 -36 -42 48 c-23 26 -51 47 -61 47 -16 0 -17
-3 -8 -12z"/>
<path d="M3516 2018 c-10 -29 -25 -61 -34 -70 -14 -17 -13 -18 10 -18 19 0 24
5 24 23 -1 16 5 23 22 25 21 3 27 -6 23 -35 -1 -8 9 -13 24 -13 24 0 35 14 16
22 -4 2 -17 28 -28 58 -11 30 -24 55 -29 57 -5 2 -18 -21 -28 -49z m34 -8 c0
-5 -4 -10 -10 -10 -5 0 -10 5 -10 10 0 6 5 10 10 10 6 0 10 -4 10 -10z"/>
<path d="M3638 2063 c7 -3 12 -24 12 -57 0 -29 -6 -58 -12 -65 -11 -10 -2 -12
42 -9 46 2 55 6 58 23 3 16 1 18 -9 8 -7 -7 -21 -13 -32 -13 -17 0 -18 7 -15
60 l3 60 -30 -1 c-16 0 -24 -3 -17 -6z"/>
<path d="M2049 1799 c-9 -18 -6 -26 21 -54 31 -32 33 -55 5 -55 -8 0 -19 8
-24 18 -9 15 -10 14 -11 -6 0 -21 4 -23 38 -20 32 3 37 7 40 29 2 19 -4 33
-24 48 -17 14 -24 26 -20 37 6 15 8 15 26 -1 19 -18 20 -17 20 3 0 31 -54 31
-71 1z"/>
<path d="M2170 1791 c4 -15 4 -47 0 -70 l-7 -42 51 3 c42 2 51 7 55 23 3 20 3
20 -17 1 -25 -22 -52 -15 -52 15 0 18 4 20 25 15 21 -5 25 -3 25 14 0 17 -4
19 -25 14 -21 -5 -25 -3 -25 15 0 24 28 29 48 9 9 -9 12 -7 12 10 0 20 -5 22
-49 22 l-50 0 9 -29z"/>
<path d="M2300 1811 c0 -6 5 -11 10 -11 14 0 12 -94 -2 -108 -9 -9 -4 -12 23
-11 18 0 28 3 22 6 -7 2 -13 17 -13 31 l1 27 27 -33 c15 -18 35 -32 45 -32 17
0 16 4 -7 30 -22 26 -24 34 -13 51 19 30 -2 53 -52 57 -24 2 -41 -1 -41 -7z
m75 -21 c7 -12 -12 -40 -26 -40 -5 0 -9 11 -9 25 0 25 23 35 35 15z"/>
<path d="M2444 1798 c7 -13 21 -44 31 -70 10 -27 21 -48 24 -48 3 0 19 28 35
63 17 34 31 65 34 70 2 4 -5 7 -17 7 -12 0 -20 -6 -19 -17 0 -10 -6 -33 -14
-52 l-15 -34 -14 39 c-7 21 -12 45 -11 52 2 7 -8 12 -23 12 -24 0 -25 -1 -11
-22z"/>
<path d="M2605 1750 c0 -63 2 -70 20 -70 18 0 20 7 20 70 0 63 -2 70 -20 70
-18 0 -20 -7 -20 -70z"/>
<path d="M2712 1800 c-28 -26 -29 -73 -1 -101 28 -28 102 -24 108 6 3 19 3 19
-16 3 -38 -34 -83 -11 -83 42 0 51 43 76 75 44 18 -19 30 -13 22 11 -9 23 -78
20 -105 -5z"/>
<path d="M2858 1808 c16 -16 16 -115 0 -121 -7 -3 13 -6 45 -6 51 -1 57 1 57
20 0 19 -1 19 -16 4 -22 -22 -48 -15 -52 14 -3 21 -1 23 22 17 22 -5 26 -3 26
14 0 17 -4 19 -25 14 -21 -5 -25 -3 -25 15 0 16 6 21 24 21 13 0 27 -6 29 -12
3 -7 6 -3 6 10 1 20 -4 22 -51 22 -40 0 -49 -3 -40 -12z"/>
<path d="M2020 1545 c0 -13 60 -15 480 -15 420 0 480 2 480 15 0 13 -60 15
-480 15 -420 0 -480 -2 -480 -15z"/>
</g>
</svg>
